<?xml version="1.0" standalone="no"?>
<!DOCTYPE svg PUBLIC "-//W3C//DTD SVG 20010904//EN"
 "http://www.w3.org/TR/2001/REC-SVG-20010904/DTD/svg10.dtd">
<svg version="1.0" xmlns="http://www.w3.org/2000/svg"
 width="450.000000pt" height="450.000000pt" viewBox="0 0 450.000000 450.000000"
 preserveAspectRatio="xMidYMid meet">
<metadata>
Created by potrace 1.11, written by Peter Selinger 2001-2013
</metadata>
<g transform="translate(0.000000,450.000000) scale(0.100000,-0.100000)"
fill="#000000" stroke="none">
<path d="M1876 3383 c-2 -3 -31 -7 -64 -9 -32 -1 -72 -5 -88 -8 -16 -3 -54 -8
-84 -12 -30 -3 -66 -7 -80 -10 -14 -2 -43 -6 -65 -9 -22 -3 -62 -10 -90 -16
-27 -5 -65 -11 -83 -14 -18 -2 -45 -6 -60 -10 -15 -3 -36 -7 -47 -9 -35 -7
-228 -56 -285 -73 -30 -9 -59 -17 -65 -18 -10 -1 -88 -22 -113 -30 -7 -3 -14
-4 -17 -5 -3 0 -18 -6 -33 -13 -15 -8 -35 -13 -45 -12 -9 2 -17 -1 -17 -7 0
-5 -6 -8 -12 -5 -7 2 -37 -7 -66 -20 -29 -12 -59 -23 -67 -23 -8 0 -15 -5 -15
-11 0 -5 -4 -8 -9 -5 -5 3 -21 -1 -37 -9 -15 -7 -31 -12 -36 -9 -4 3 -8 1 -8
-5 0 -8 -27 -22 -50 -26 -3 0 -15 -6 -26 -13 -12 -6 -24 -8 -28 -5 -3 3 -6 1
-6 -6 0 -7 -4 -10 -9 -7 -5 3 -14 -1 -21 -9 -7 -8 -21 -15 -31 -15 -11 0 -19
-4 -19 -8 0 -4 -9 -8 -20 -9 -11 -1 -27 -9 -36 -17 -8 -9 -23 -16 -33 -16 -9
0 -31 -10 -47 -22 -29 -22 -30 -26 -29 -104 l0 -81 45 27 c63 37 229 115 319
151 42 17 88 38 103 46 16 8 28 11 28 7 0 -3 6 -2 12 3 10 8 107 44 128 48 3
1 48 15 100 32 52 18 107 34 122 37 15 2 31 7 36 10 5 3 22 8 38 11 36 7 44
10 67 20 9 4 24 5 32 1 8 -3 15 -2 15 2 0 5 30 15 68 22 37 8 72 15 77 16 21
4 71 14 100 19 17 3 41 8 55 10 59 12 75 14 133 20 34 4 64 8 67 10 7 4 142
18 210 21 30 1 55 3 55 4 0 9 377 12 610 5 280 -8 446 -24 700 -70 17 -3 39
-8 50 -10 11 -2 65 -13 120 -25 55 -12 112 -25 128 -27 15 -3 27 -9 27 -14 0
-5 7 -6 15 -3 8 3 20 2 27 -2 7 -5 18 -9 23 -9 42 -4 331 -98 510 -167 116
-45 369 -160 377 -173 4 -5 8 -6 8 -2 0 4 8 3 18 -2 15 -8 17 -2 17 71 l0 80
-110 53 c-181 86 -318 145 -341 145 -7 0 -14 3 -16 8 -2 5 -193 74 -218 78 -3
0 -12 3 -20 7 -45 17 -305 88 -380 102 -14 3 -36 8 -50 12 -47 12 -55 13 -85
17 -16 3 -30 5 -30 6 0 2 -9 4 -20 6 -11 2 -31 5 -45 8 -74 13 -171 27 -215
32 -164 17 -302 27 -387 28 -38 1 -68 4 -68 7 0 7 -607 9 -614 2z"/>
<path d="M2060 3083 c0 -4 -32 -9 -71 -10 -39 -1 -74 -5 -77 -8 -3 -3 -6 -56
-7 -118 l-1 -112 36 -10 c25 -7 40 -20 52 -44 15 -30 16 -73 12 -445 -2 -226
-6 -422 -9 -435 -9 -47 -55 -77 -136 -90 l-48 -8 0 73 c0 41 -2 78 -6 84 -3 5
-3 10 2 10 9 0 9 223 -1 238 -3 6 -3 13 2 16 4 2 5 34 2 71 -3 37 -3 68 0 70
3 2 4 82 2 179 l-3 177 -37 -6 c-20 -3 -55 -7 -77 -10 -111 -12 -142 -16 -162
-20 l-21 -5 -1 -422 c0 -233 0 -438 -1 -455 0 -36 -25 -58 -75 -66 -16 -3 -42
-10 -56 -15 -15 -6 -30 -8 -33 -5 -3 3 -12 0 -21 -7 -13 -11 -15 -8 -16 21 -1
122 1 927 4 940 6 31 39 71 72 85 l33 13 -3 118 c-1 65 -3 121 -4 125 0 4 -13
3 -28 -3 -16 -6 -29 -10 -30 -10 -2 1 -4 1 -5 0 -2 0 -16 -2 -33 -4 -16 -2
-49 -9 -72 -14 -82 -21 -128 -32 -148 -36 -11 -2 -67 -17 -125 -33 -103 -28
-105 -29 -111 -63 -4 -18 -4 -36 1 -39 5 -3 6 -11 2 -17 -8 -13 -6 -128 2
-141 3 -5 22 -8 43 -7 45 2 75 -9 91 -35 15 -25 18 -463 3 -468 -6 -2 -11 1
-11 8 0 9 -102 181 -319 533 -67 108 -79 118 -118 94 -7 -5 -13 -5 -13 0 0 4
-4 3 -8 -3 -4 -5 -29 -18 -57 -29 -27 -10 -65 -24 -82 -32 -18 -7 -36 -13 -39
-12 -4 0 -10 -3 -13 -8 -6 -9 -56 -34 -181 -89 -36 -16 -69 -32 -75 -37 -5 -4
-19 -14 -30 -21 -17 -12 -19 -27 -20 -145 -1 -86 2 -137 10 -148 8 -11 32 -16
81 -18 38 -2 72 -3 76 -4 16 -2 21 -55 22 -199 1 -185 1 -184 -104 -187 -39
-1 -73 -5 -77 -9 -4 -4 -8 -68 -8 -142 l-1 -136 55 -41 c30 -23 67 -54 83 -69
15 -14 28 -24 28 -21 0 3 25 -16 54 -41 44 -37 64 -47 98 -50 24 -1 49 1 56 7
7 5 12 5 12 0 0 -10 40 -10 57 0 7 4 14 3 17 -1 3 -5 25 -6 48 -3 24 4 62 6
86 5 26 -2 42 2 43 9 5 65 2 256 -4 270 -7 15 -18 18 -55 16 -52 -3 -74 6 -89
36 -11 23 -10 156 2 175 6 9 4 11 -5 5 -9 -6 -10 -4 -3 10 6 9 7 34 3 56 -4
21 -4 39 -1 39 3 0 6 54 6 120 0 66 2 120 5 120 4 0 26 -33 50 -72 47 -78 161
-265 198 -326 12 -20 25 -44 29 -52 4 -8 9 -17 13 -20 3 -3 55 -87 115 -186
l110 -181 43 18 c24 11 50 19 58 19 8 0 14 5 14 12 0 6 3 9 6 5 4 -3 23 0 43
8 20 8 70 24 111 35 41 12 82 24 90 27 19 8 40 13 65 17 11 1 29 6 40 9 18 6
56 13 110 23 11 2 31 5 45 8 14 3 42 7 63 10 20 3 52 8 70 11 104 16 288 28
417 28 132 0 284 -6 294 -11 4 -2 36 -6 70 -8 33 -2 75 -5 91 -8 17 -2 46 -7
65 -10 19 -3 51 -8 70 -10 29 -4 138 -25 215 -43 11 -2 31 -6 44 -9 14 -3 28
-7 33 -10 5 -3 21 -7 36 -10 31 -5 81 -20 237 -71 61 -20 122 -37 136 -38 15
-1 31 -5 37 -9 6 -3 13 -2 17 4 4 6 11 8 16 4 12 -7 129 -12 130 -5 1 8 1 261
0 283 -1 19 -27 27 -56 18 -32 -11 -83 7 -91 33 -4 12 -8 61 -8 109 l-1 88 33
17 c17 10 32 21 32 25 0 5 5 8 10 8 6 0 29 14 52 30 23 17 45 27 50 22 13 -13
78 -124 78 -133 0 -5 3 -9 8 -9 4 0 13 -13 20 -30 7 -16 24 -45 37 -65 14 -19
22 -35 19 -35 -2 0 0 -9 6 -19 8 -16 6 -23 -12 -35 -12 -9 -30 -16 -40 -16
-20 0 -20 3 -20 -173 0 -65 3 -121 6 -124 4 -4 86 -7 184 -8 145 -1 180 2 195
15 10 8 27 22 37 30 9 8 32 26 51 40 18 14 40 33 48 43 9 9 19 17 24 17 5 0
31 19 58 42 l49 41 0 121 c-1 141 -6 153 -70 155 -25 1 -79 3 -120 5 -115 4
-118 7 -178 117 -16 30 -50 90 -75 134 l-45 79 66 45 c37 24 69 47 72 50 11
14 60 41 74 41 8 0 34 -18 57 -40 24 -22 50 -40 59 -41 163 -10 160 -13 160
160 0 130 -1 137 -22 150 -36 23 -227 116 -288 141 -30 12 -64 26 -75 30 -29
13 -258 90 -265 90 -3 0 -6 -52 -6 -115 l-1 -115 26 -7 c54 -12 74 -62 39 -95
-27 -27 -321 -219 -326 -214 -5 6 -5 300 1 328 2 9 11 26 21 37 14 15 24 17
49 11 18 -4 43 -11 57 -14 l25 -5 -1 110 c-1 107 -6 127 -35 133 -8 2 -21 6
-29 9 -25 10 -104 38 -120 42 -8 2 -15 4 -15 5 0 2 -33 9 -65 15 -14 2 -25 4
-25 5 0 1 -13 4 -30 6 -16 3 -54 9 -84 15 -30 6 -64 12 -75 14 -12 1 -39 5
-61 9 -22 4 -53 9 -70 11 -16 2 -43 7 -60 10 -16 3 -44 6 -60 8 -17 2 -35 6
-40 9 -6 3 -34 9 -64 12 -30 4 -64 9 -75 11 -12 3 -37 7 -56 10 -19 2 -48 7
-64 10 -17 3 -64 8 -107 9 -42 2 -82 7 -88 10 -6 4 -11 3 -11 -3 0 -7 -8 -7
-23 -2 -13 5 -28 6 -34 3 -6 -4 -61 -5 -122 -2 -61 3 -121 2 -133 -1 -13 -3
-31 -2 -40 3 -10 5 -19 4 -23 -2 -4 -7 -13 -7 -26 0 -10 6 -19 7 -19 3z m519
-265 c91 -25 144 -98 129 -177 -20 -114 -127 -189 -288 -203 -29 -3 -35 0 -36
18 -1 12 -4 26 -8 33 -4 6 -3 11 3 11 6 0 6 11 1 29 -4 16 -5 32 -2 36 9 9 9
39 0 46 -4 3 -4 19 1 37 5 18 6 32 2 32 -13 0 -2 114 13 138 9 15 129 15 185
0z m597 -43 c22 -8 50 -28 61 -43 19 -26 20 -42 20 -512 0 -286 -3 -492 -9
-503 -10 -19 -39 -18 -120 4 -42 11 -42 12 -28 39 21 40 32 210 16 272 -19 80
-74 171 -143 243 l-40 41 33 32 c18 18 47 61 64 95 25 51 31 77 33 137 2 84
-8 173 -23 200 -5 9 -7 20 -4 22 7 7 92 -9 140 -27z m-586 -528 c8 -2 32 -11
52 -21 84 -40 134 -126 123 -208 -9 -63 -75 -147 -117 -148 -9 0 -19 -4 -23
-10 -3 -5 -12 -7 -20 -3 -8 3 -15 1 -15 -5 0 -5 -10 -10 -22 -10 -13 0 -63 -3
-113 -7 -82 -7 -89 -6 -76 9 8 9 9 16 3 16 -7 0 -8 10 -2 30 5 17 6 30 2 30
-9 0 -8 153 2 168 4 7 4 12 -1 12 -4 0 -8 23 -8 50 0 28 4 50 8 50 5 0 5 5 2
10 -3 6 1 17 9 26 9 8 16 13 16 11 0 -3 12 -2 27 2 25 7 117 6 153 -2z"/>
<path d="M1757 3054 c-1 -1 -40 -5 -87 -9 -47 -3 -101 -10 -120 -14 l-35 -7
-3 -114 c-3 -129 0 -149 23 -130 11 9 15 9 15 1 0 -7 5 -9 10 -6 6 4 26 8 45
11 19 2 52 6 73 9 20 3 57 8 82 11 25 4 46 7 47 8 2 2 5 162 4 207 -1 33 -4
37 -27 35 -14 0 -26 -2 -27 -2z"/>
<path d="M2098 1444 c-2 -1 -43 -5 -93 -9 -49 -3 -108 -9 -130 -12 -22 -2 -53
-6 -70 -8 -16 -2 -30 -4 -30 -5 0 -2 -35 -9 -77 -15 -32 -4 -77 -13 -153 -31
-11 -3 -33 -8 -50 -11 -38 -6 -353 -111 -380 -126 -14 -8 -142 -11 -410 -12
l-390 0 -1 -45 c0 -25 1 -50 3 -56 3 -7 132 -10 421 -9 l417 2 80 32 c44 18
87 34 95 36 8 2 29 9 45 15 30 12 56 19 85 25 8 1 22 5 30 8 15 6 90 26 120
32 8 2 62 13 119 25 57 11 110 19 117 16 8 -3 14 -2 14 2 0 4 8 8 18 8 9 1 49
5 87 9 137 17 540 11 668 -10 12 -2 39 -6 60 -9 92 -14 113 -19 128 -27 9 -4
18 -6 21 -4 2 3 20 0 39 -5 19 -6 46 -13 61 -15 49 -9 260 -75 342 -108 l81
-32 400 -1 c220 -1 407 0 416 2 12 3 15 17 15 57 l-1 52 -390 1 -390 1 -67 27
c-37 15 -75 29 -85 31 -10 2 -19 4 -20 5 -2 2 -6 3 -10 5 -5 1 -15 5 -23 8
-43 20 -302 87 -387 101 -15 2 -28 5 -28 6 0 0 -18 3 -40 6 -62 6 -97 11 -133
18 -67 13 -153 18 -334 20 -104 2 -189 2 -190 0z"/>
</g>
</svg>
